<?xml version="1.0" encoding="UTF-8"?>
<svg width="116px" height="116px" viewBox="0 0 116 116" version="1.1" xmlns="http://www.w3.org/2000/svg" xmlns:xlink="http://www.w3.org/1999/xlink">
    <!-- Generator: Sketch 55.2 (78181) - https://sketchapp.com -->
    <title>Group 3</title>
    <desc>Created with Sketch.</desc>
    <defs>
        <linearGradient x1="50%" y1="0%" x2="50%" y2="100%" id="linearGradient-1">
            <stop stop-color="#AEE2C2" offset="0%"></stop>
            <stop stop-color="#7CCC9B" offset="100%"></stop>
        </linearGradient>
    </defs>
    <g id="Page-1" stroke="none" stroke-width="1" fill="none" fill-rule="evenodd">
        <g id="Desktop" transform="translate(-757.000000, -64.000000)">
            <g id="Group-3" transform="translate(757.000000, 64.000000)">
                <circle id="Oval" fill="url(#linearGradient-1)" cx="58" cy="58" r="58"></circle>
                <g id="Group-2" transform="translate(18.000000, 28.000000)" fill-rule="nonzero">
                    <g id="comment-dollar" fill="#0C1322">
                        <path d="M24.6491014,0 C11.03625,0 0,8.97040027 0,20.0369766 C0,24.8111715 2.06147367,29.1894436 5.49020219,32.6313723 C4.28085565,37.477816 0.259970991,41.8050323 0.211828215,41.856088 C0,42.0793834 -0.0587011055,42.4075009 0.0627875229,42.6904114 C0.184276151,42.973322 0.46251612,43.1565649 0.770284418,43.1565649 C7.15016511,43.1565649 11.9384456,40.098036 14.3080331,38.2070463 C17.4556078,39.3928886 20.9507733,40.0739531 24.6491014,40.0739531 C38.2619528,40.0739531 49.2982028,31.1035528 49.2982028,20.0369766 C49.2982028,8.97040027 38.2619528,0 24.6491014,0 Z M26.9599546,29.1345346 L26.9599546,30.8261178 C26.9599546,31.6776893 26.2705501,32.3674237 25.4193858,32.3674237 L23.878817,32.3674237 C23.0276527,32.3674237 22.3382481,31.6776893 22.3382481,30.8261178 L22.3382481,29.1181582 C21.2386671,28.9881105 20.193006,28.6181971 19.2782933,28.0141978 C18.6793971,27.6182749 18.6216258,26.7512903 19.1290507,26.2436227 L20.8159735,24.5558928 C21.1760815,24.1956125 21.712392,24.1474467 22.1745627,24.3603396 C22.4807507,24.5009837 22.8158245,24.5741958 23.1624525,24.5741958 L26.3186929,24.5741958 C26.7673835,24.5741958 27.1313429,24.2100622 27.1313429,23.7630835 C27.1313429,23.40184 26.8887033,23.0810557 26.5420753,22.9818341 L21.7210577,21.604292 C19.5787042,20.9925862 17.8686728,19.2239377 17.5894447,17.0121637 C17.1994882,13.9228088 19.4217587,11.2871757 22.3382481,10.9384552 L22.3382481,9.24783533 C22.3382481,8.39626383 23.0276527,7.70652944 23.878817,7.70652944 L25.4193858,7.70652944 C26.2705501,7.70652944 26.9599546,8.39626383 26.9599546,9.24783533 L26.9599546,10.9557949 C28.0595356,11.0858426 29.1051967,11.455756 30.0199095,12.0597553 C30.6188056,12.4556782 30.6765769,13.3226628 30.1691521,13.8303304 L28.4822292,15.5180603 C28.1221212,15.8783406 27.5858107,15.9265064 27.1236401,15.7136135 C26.8136393,15.571803 26.4766178,15.4988453 26.1357503,15.4997573 L22.9795099,15.4997573 C22.5308192,15.4997573 22.1668598,15.8638909 22.1668598,16.3108696 C22.1668598,16.6721131 22.4094994,16.9928974 22.7561274,17.092119 L27.577145,18.4696611 C29.7194986,19.0823302 31.42953,20.8500154 31.7087581,23.0617894 C32.0987146,26.150181 29.876444,28.7858141 26.9599546,29.1345346 L26.9599546,29.1345346 Z" id="Shape"></path>
                    </g>
                    <g id="Group" transform="translate(30.229070, 17.108495)">
                        <g id="comment" transform="translate(25.034566, 22.000000) scale(-1, 1) translate(-25.034566, -22.000000) translate(0.034566, 0.000000)" fill="#FFFFFF">
                            <path d="M24.6491014,0 C11.0343243,0 0,8.96847364 0,20.0369766 C0,24.8150248 2.06051082,29.1884803 5.48827648,32.627519 C4.28470708,37.4826326 0.259970991,41.8079222 0.211828215,41.856088 C0,42.0776508 -0.0577713314,42.4051783 0.0673998866,42.6941731 C0.192571105,42.983168 0.462170651,43.1565649 0.770284418,43.1565649 C7.15401653,43.1565649 11.9394085,40.0932194 14.3080331,38.2051197 C17.4565706,39.3899986 20.9517362,40.0739531 24.6491014,40.0739531 C38.2638785,40.0739531 49.2982028,31.1054795 49.2982028,20.0369766 C49.2982028,8.96847364 38.2638785,0 24.6491014,0 Z" id="Path"></path>
                        </g>
                        <g id="pound-sign" transform="translate(19.069133, 9.710227)" fill="#95D7AF">
                            <path d="M13.641737,14.2020328 L11.6267019,14.2020328 C11.3331831,14.2020328 11.0952056,14.4404938 11.0952056,14.7346091 L11.0952056,16.9913121 L5.66929332,16.9913121 L5.66929332,11.3616263 L9.38976706,11.3616263 C9.68328586,11.3616263 9.9212633,11.1231653 9.9212633,10.82905 L9.9212633,9.05379593 C9.9212633,8.75968071 9.68328586,8.5212197 9.38976706,8.5212197 L5.66929332,8.5212197 L5.66929332,5.70051845 C5.66929332,4.26850973 6.75717755,3.16696456 8.40614467,3.16696456 C9.45398952,3.16696456 10.4381434,3.67757202 10.9596298,4.00350867 C11.1877746,4.14610596 11.4861654,4.09453483 11.6544726,3.88434474 L12.9164661,2.30822977 C13.1039514,2.07407375 13.0616975,1.73105028 12.8226127,1.55015188 C12.0970318,1.00124331 10.4782714,0 8.32371846,0 C4.6960351,0 2.12598499,2.3407613 2.12598499,5.59031955 L2.12598499,8.5212197 L0.885827081,8.5212197 C0.592308278,8.5212197 0.354330832,8.75968071 0.354330832,9.05379593 L0.354330832,10.82905 C0.354330832,11.1231653 0.592308278,11.3616263 0.885827081,11.3616263 L2.12598499,11.3616263 L2.12598499,17.0424394 L0.531496248,17.0424394 C0.237977445,17.0424394 0,17.2809004 0,17.5750156 L0,19.3502697 C0,19.644385 0.237977445,19.882846 0.531496248,19.882846 L13.641737,19.882846 C13.9352558,19.882846 14.1732333,19.644385 14.1732333,19.3502697 L14.1732333,14.7346091 C14.1732333,14.4404938 13.9352558,14.2020328 13.641737,14.2020328 Z" id="Path"></path>
                        </g>
                    </g>
                </g>
            </g>
        </g>
    </g>
</svg>